<svg width="63" height="30" viewBox="0 0 63 30" fill="none" xmlns="http://www.w3.org/2000/svg">
<path d="M47.7212 0.407104H50.4487L56.3514 18.7259H53.6239L47.7212 0.407104ZM62.0913 0.407104L56.3514 18.7259L55.8629 18.1967L61.5214 0.407104H62.0913ZM53.6239 28.6181V18.7259H56.3514V28.6181H53.6239Z" fill="#102D2D"/>
<path d="M31.808 29.0252C29.7183 29.0252 27.7914 28.6724 26.0274 27.9668C24.2633 27.2611 22.7164 26.257 21.3866 24.9543C20.0839 23.6516 19.0662 22.1183 18.3334 20.3543C17.6007 18.5631 17.2343 16.6091 17.2343 14.4922C17.2343 12.3754 17.6007 10.435 18.3334 8.67092C19.0662 6.87974 20.0839 5.34638 21.3866 4.07085C22.7164 2.76818 24.2633 1.76404 26.0274 1.05842C27.7914 0.352807 29.7183 0 31.808 0C33.8705 0 35.7838 0.352807 37.5479 1.05842C39.339 1.76404 40.886 2.76818 42.1886 4.07085C43.4913 5.34638 44.509 6.87974 45.2418 8.67092C45.9745 10.435 46.3409 12.3754 46.3409 14.4922C46.3409 16.6091 45.9745 18.5631 45.2418 20.3543C44.509 22.1183 43.4913 23.6516 42.1886 24.9543C40.886 26.257 39.339 27.2611 37.5479 27.9668C35.7838 28.6724 33.8705 29.0252 31.808 29.0252ZM31.808 28.496C34.0062 28.496 35.9874 27.9125 37.7514 26.7455C39.5426 25.5785 40.9538 23.9502 41.9851 21.8605C43.0164 19.7708 43.532 17.3147 43.532 14.4922C43.532 11.7512 43.0164 9.33582 41.9851 7.24612C40.981 5.15641 39.5969 3.5145 37.8328 2.32038C36.0688 1.12627 34.0605 0.529209 31.808 0.529209C29.5826 0.529209 27.5743 1.1127 25.7831 2.27968C24.0191 3.44665 22.6214 5.075 21.5901 7.1647C20.586 9.22726 20.0839 11.6698 20.0839 14.4922C20.0839 17.2333 20.586 19.6622 21.5901 21.7791C22.5943 23.8688 23.9784 25.5107 25.7424 26.7048C27.5336 27.8989 29.5554 28.496 31.808 28.496Z" fill="#102D2D"/>
<path d="M0 28.6181V0.407104H2.68676V28.6181H0ZM5.98415 14.5737L8.63021 14.4515L15.225 28.6181H12.3754L5.98415 14.5737ZM6.10628 0.936316H2.36109V0.407104H6.87974C8.34525 0.407104 9.66149 0.719203 10.8285 1.3434C11.9954 1.9676 12.9182 2.82248 13.5966 3.90804C14.2751 4.9936 14.6144 6.24199 14.6144 7.65322C14.6144 9.03731 14.2751 10.2721 13.5966 11.3577C12.9182 12.4161 11.9954 13.2574 10.8285 13.8816C9.66149 14.4787 8.34525 14.7772 6.87974 14.7772H2.56464V14.248H6.10628C7.24612 14.248 8.23669 13.963 9.078 13.3931C9.94645 12.8232 10.6114 12.0497 11.0727 11.0727C11.5612 10.0686 11.8055 8.92875 11.8055 7.65322C11.8055 6.40483 11.5612 5.26499 11.0727 4.2337C10.6114 3.20242 9.94645 2.40182 9.078 1.8319C8.23669 1.23484 7.24612 0.936316 6.10628 0.936316Z" fill="#102D2D"/>
</svg>
